#!OML:ASF E:\Mandelcareful walks\Project 1\Capture day 1\Session 1\Subject1.ASF
:FULLY-SPECIFIED
:DEGREES
954
root 5.91323 15.5621 -0.880704 -74.4736 -84.2608 80.366
lowerback 29.0892 3.17319 -1.1621
upperback 8.00425 2.88974 -1.09562
thorax -7.01368 1.09354 -1.49473
lowerneck -26.649 7.98607 2.22536
upperneck 30.7871 13.2332 -7.64075
head 16.2274 4.46543 -0.812887
rclavicle -3.69739e-014 3.97569e-015
rhumerus -19.9707 -0.532432 -87.5732
rradius 80.8663
rwrist -16.3186
rhand -13.5959 -28.0611
rfingers 7.12502
rthumb 12.5187 -57.6661
lclavicle -3.69739e-014 3.97569e-015
lhumerus -16.8126 -23.2187 88.6553
lradius 71.4275
lwrist 12.5857
lhand -23.8985 -13.9154
lfingers 7.12502
lthumb 2.57536 16.0488
rfemur -25.1339 -11.9775 0.46594
rtibia 50.7326
rfoot -22.3526 -8.3493
rtoes -13.7115
lfemur -36.1201 10.7036 -19.4322
ltibia 58.0899
lfoot -21.7092 1.07827
ltoes -1.31297
955
root 5.90823 15.5716 -0.884282 -72.6491 -84.2788 78.5993
lowerback 29.0333 3.10829 -1.13196
upperback 7.98582 2.8238 -1.07458
thorax -7.00847 1.06392 -1.46464
lowerneck -26.5825 7.95 2.26859
upperneck 30.5317 13.1995 -7.81411
head 16.11 4.44752 -0.90084
rclavicle 4.57205e-014 -5.56597e-014
rhumerus -19.8642 -0.336442 -87.5685
rradius 80.8289
rwrist -16.3898
rhand -13.6798 -28.4239
rfingers 7.12502
rthumb 12.4378 -58.0338
lclavicle 4.57205e-014 -5.56597e-014
lhumerus -16.8116 -22.9959 88.6991
lradius 71.4846
lwrist 12.5205
lhand -23.8005 -13.6776
lfingers 7.12502
lthumb 2.67004 16.2855
rfemur -25.066 -12.0515 0.541765
rtibia 50.6315
rfoot -22.3332 -8.45661
rtoes -14.1326
lfemur -36.1496 10.5572 -19.3784
ltibia 57.9919
lfoot -21.6588 1.11992
ltoes -1.57561
956
root 5.90311 15.5797 -0.887284 -71.2727 -84.3192 77.316
lowerback 28.9639 3.06152 -1.05981
upperback 7.92784 2.79493 -1.06994
thorax -7.03767 1.05311 -1.49021
lowerneck -26.5592 7.86139 2.26117
upperneck 30.3521 13.0795 -7.88223
head 16.0171 4.39844 -0.954657
rclavicle -1.15295e-014 1.43125e-014
rhumerus -19.9108 -0.248522 -87.5504
rradius 80.9436
rwrist -16.5258
rhand -13.6035 -28.5879
rfingers 7.12502
rthumb 12.5114 -58.1933
lclavicle -1.15295e-014 1.43125e-014
lhumerus -16.8942 -22.9103 88.7594
lradius 71.5851
lwrist 12.5383
lhand -23.7045 -13.5261
lfingers 7.12502
lthumb 2.76275 16.4358
rfemur -25.0671 -12.1015 0.642177
rtibia 50.5299
rfoot -22.227 -8.87853
rtoes -14.795
lfemur -36.2201 10.4392 -19.3119
ltibia 57.8869
lfoot -21.5521 1.16559
ltoes -1.49906
957
root 5.89053 15.5815 -0.891937 -70.5141 -84.1997 76.5103
lowerback 28.9722 3.04712 -1.11009
upperback 7.91544 2.76027 -1.10705
thorax -7.05656 1.03755 -1.49162
lowerneck -26.6523 7.69748 2.05498
upperneck 30.2813 12.8726 -7.74114
head 15.9574 4.31191 -0.90517
rclavicle 8.74653e-015 4.77083e-015
rhumerus -19.9588 -0.28184 -87.5398
rradius 80.9975
rwrist -16.5178
rhand -13.2765 -28.6642
rfingers 7.12502
rthumb 12.8266 -58.2501
lclavicle 8.74653e-015 4.77083e-015
lhumerus -16.9758 -22.9599 88.8267
lradius 71.6084
lwrist 12.6168
lhand -23.7201 -13.5122
lfingers 7.12502
lthumb 2.74771 16.4498
rfemur -24.8407 -12.1818 0.531836
rtibia 50.4393
rfoot -22.0787 -9.62529
rtoes -15.3112
lfemur -36.0287 10.3288 -19.3842
ltibia 57.7543
lfoot -21.5578 1.12819
ltoes -1.46054
958
root 5.87299 15.5847 -0.898601 -70.4271 -84.0423 76.3342
lowerback 28.9166 3.07083 -1.21965
upperback 7.97533 2.75178 -1.16269
thorax -6.96508 1.0332 -1.48365
lowerneck -26.7985 7.42239 1.70143
upperneck 30.1274 12.5272 -7.50588
head 15.8406 4.16903 -0.820902
rclavicle 1.19271e-015 3.73715e-014
rhumerus -19.8679 -0.362864 -87.534
rradius 80.9667
rwrist -16.4942
rhand -13.1035 -28.7032
rfingers 7.12502
rthumb 12.9934 -58.2786
lclavicle 1.19271e-015 3.73715e-014
lhumerus -16.9744 -23.0275 88.8614
lradius 71.6249
lwrist 12.6327
lhand -23.6781 -13.6342
lfingers 7.12502
lthumb 2.78821 16.3273
rfemur -24.5676 -12.2041 0.36511
rtibia 50.3724
rfoot -22.0587 -10.0438
rtoes -15.2642
lfemur -35.7466 10.3017 -19.5081
ltibia 57.6168
lfoot -21.5765 1.10754
ltoes -1.65474
959
root 5.85699 15.5923 -0.906056 -70.4371 -83.9779 76.3213
lowerback 28.7536 3.10168 -1.30693
upperback 8.04754 2.76667 -1.18283
thorax -6.80895 1.04066 -1.45227
lowerneck -26.934 7.05592 1.28066
upperneck 29.8603 12.0509 -7.22095
head 15.6539 3.97919 -0.733258
rclavicle -3.02153e-014 -6.36111e-015
rhumerus -19.7433 -0.391424 -87.5224
rradius 80.9155
rwrist -16.5027
rhand -13.1557 -28.4258
rfingers 7.12502
rthumb 12.9431 -58.0043
lclavicle -3.02153e-014 -6.36111e-015
lhumerus -16.9344 -23.0481 88.9159
lradius 71.6394
lwrist 12.5395
lhand -23.6866 -13.8341
lfingers 7.12502
lthumb 2.78007 16.1275
rfemur -24.4301 -12.2059 0.319284
rtibia 50.3357
rfoot -22.0851 -10.027
rtoes -14.8717
lfemur -35.6016 10.3169 -19.5346
ltibia 57.4924
lfoot -21.5371 1.08973
ltoes -1.61635
960
root 5.84913 15.5931 -0.914422 -69.5477 -84.0025 75.5089
lowerback 28.6112 3.07604 -1.35209
upperback 8.03463 2.73459 -1.14214
thorax -6.76014 1.02791 -1.36541
lowerneck -26.9535 6.68712 0.827299
upperneck 29.5406 11.5569 -6.87148
head 15.4145 3.79453 -0.619958
rclavicle -3.97569e-016 2.14687e-014
rhumerus -19.7303 -0.294905 -87.5283
rradius 80.8566
rwrist -16.5305
rhand -13.2472 -28.2046
rfingers 7.12502
rthumb 12.8549 -57.7888
lclavicle -3.97569e-016 2.14687e-014
lhumerus -16.9157 -22.9948 89.0102
lradius 71.6151
lwrist 12.496
lhand -23.794 -13.7487
lfingers 7.12502
lthumb 2.67626 16.2143
rfemur -24.463 -12.2873 0.418432
rtibia 50.3483
rfoot -22.0299 -9.92117
rtoes -14.3937
lfemur -35.6328 10.2522 -19.4366
ltibia 57.3948
lfoot -21.506 0.997599
ltoes -1.27471
